<svg xmlns="http://www.w3.org/2000/svg">
  <!-- home icon -->
  <symbol id="home"
    xmlns="http://www.w3.org/2000/svg" width="24" height="24" viewBox="0 0 24 24" fill="none"
    stroke="currentColor" stroke-width="2" stroke-linecap="round" stroke-linejoin="round"
    class="icon icon-tabler icons-tabler-outline icon-tabler-home">
    <path stroke="none" d="M0 0h24v24H0z" fill="none" />
    <path d="M5 12l-2 0l9 -9l9 9l-2 0" />
    <path d="M5 12v7a2 2 0 0 0 2 2h10a2 2 0 0 0 2 -2v-7" />
    <path d="M9 21v-6a2 2 0 0 1 2 -2h2a2 2 0 0 1 2 2v6" />
  </symbol>

  <!-- search icon -->
  <symbol id="search"
    xmlns="http://www.w3.org/2000/svg" width="24" height="24" viewBox="0 0 24 24" fill="none"
    stroke="currentColor" stroke-width="2" stroke-linecap="round" stroke-linejoin="round"
    class="icon icon-tabler icons-tabler-outline icon-tabler-search">
    <path stroke="none" d="M0 0h24v24H0z" fill="none" />
    <path d="M10 10m-7 0a7 7 0 1 0 14 0a7 7 0 1 0 -14 0" />
    <path d="M21 21l-6 -6" />
  </symbol>

  <!-- stacks icon -->
  <symbol id="stacks"
    xmlns="http://www.w3.org/2000/svg" width="24" height="24" viewBox="0 0 24 24"
    fill="currentColor" class="icon icon-tabler icons-tabler-filled icon-tabler-stack-2">
    <path stroke="none" d="M0 0h24v24H0z" fill="none" />
    <path
      d="M20.894 15.553a1 1 0 0 1 -.447 1.341l-8 4a1 1 0 0 1 -.894 0l-8 -4a1 1 0 0 1 .894 -1.788l7.553 3.774l7.554 -3.775a1 1 0 0 1 1.341 .447m0 -4a1 1 0 0 1 -.447 1.341l-8 4a1 1 0 0 1 -.894 0l-8 -4a1 1 0 0 1 .894 -1.788l7.552 3.775l7.554 -3.775a1 1 0 0 1 1.341 .447m-8.887 -8.552q .056 0 .111 .007l.111 .02l.086 .024l.012 .006l.012 .002l.029 .014l.05 .019l.016 .009l.012 .005l8 4a1 1 0 0 1 0 1.788l-8 4a1 1 0 0 1 -.894 0l-8 -4a1 1 0 0 1 0 -1.788l8 -4l.011 -.005l.018 -.01l.078 -.032l.011 -.002l.013 -.006l.086 -.024l.11 -.02l.056 -.005z" />
  </symbol>
</svg>